<?xml version="1.0" encoding="UTF-8" standalone="no"?>
<!-- Created with Inkscape (http://www.inkscape.org/) -->

<svg
   width="1000.0001"
   height="1000.0001"
   viewBox="0 0 264.58335 264.58335"
   version="1.1"
   id="svg1"
   xmlns="http://www.w3.org/2000/svg"
   xmlns:svg="http://www.w3.org/2000/svg">
  <defs
     id="defs1" />
  <path
     d="m 65.357126,236.97223 c 2.170086,-0.25747 3.825236,-0.75402 4.96545,-1.48963 v -29.7927 c -1.360901,-0.73562 -3.126396,-1.23217 -5.296481,-1.48964 l 0.275858,-1.98618 h 15.282553 l -0.275858,1.98618 c -2.022961,0.25747 -3.714893,0.75402 -5.075793,1.48964 v 30.12373 h 10.317101 c 1.140215,-1.61837 1.93101,-3.69651 2.372383,-6.2344 0.294249,-0.11033 0.625279,-0.16551 0.99309,-0.16551 0.367811,0 0.772404,0.0551 1.213776,0.16551 l -0.496545,9.43435 H 65.026095 Z m 41.930484,7.66605 c -5.40682,0 -9.287224,-6.85686 -11.641222,-10.0936 -2.317212,-3.23674 -6.730959,-7.88954 -6.730959,-13.95843 0,-6.10566 4.413747,-10.77687 6.730959,-14.01361 2.353998,-3.23673 6.234402,-9.7194 11.641222,-9.7194 5.37004,0 9.21367,6.50107 11.53089,9.77458 2.35398,3.23674 6.67583,7.90793 6.67583,14.0136 0,6.06888 -4.32185,10.7217 -6.67583,13.95844 -2.31722,3.19995 -6.16085,10.03842 -11.53089,10.03842 z m 0,-7.94191 c 2.61146,0 4.59764,-0.69884 5.95854,-2.09651 1.39769,-1.43447 2.33561,-3.31031 2.81376,-5.62751 0.47816,-2.31721 0.71724,-5.09419 0.71724,-8.33093 0,-3.27351 -0.23908,-6.06888 -0.71724,-8.38609 -0.47815,-2.31722 -1.41607,-4.19306 -2.81376,-5.62751 -1.3609,-1.43446 -3.34708,-2.15169 -5.95854,-2.15169 -2.61145,0 -4.61603,0.71723 -6.01371,2.15169 -1.397672,1.43445 -2.335593,3.31029 -2.81375,5.62751 -0.478157,2.28042 -0.717235,5.0574 -0.717235,8.33092 0,5.03901 0.643664,8.99298 1.931005,11.8619 1.32413,2.83214 3.86203,4.24822 7.61369,4.24822 z m 23.66871,0.27586 c 2.17008,-0.25747 3.84363,-0.75402 5.02061,-1.48963 v -30.78579 c -2.83214,0.0367 -5.2413,0.16546 -7.22748,0.38619 -0.66206,0.91953 -1.17699,1.98619 -1.5448,3.19997 -0.33103,1.17699 -0.51494,2.24364 -0.55172,3.19996 -0.25747,0.0369 -0.64367,0.0552 -1.1586,0.0552 -0.5885,0 -1.01149,-0.0184 -1.26895,-0.0552 v -9.48954 c 5.07578,0.14713 9.78376,0.22069 14.12394,0.22069 2.90572,0 5.70107,-0.0184 8.3861,-0.0551 2.7218,-0.0736 4.6528,-0.1287 5.79303,-0.16553 v 9.48954 c -0.25747,0.0369 -0.64368,0.0552 -1.15861,0.0552 -0.55171,0 -0.9747,-0.0184 -1.26895,-0.0552 -0.25747,-2.64824 -0.91952,-4.76316 -1.98618,-6.34475 -2.39077,-0.25747 -4.81833,-0.40459 -7.28267,-0.44137 v 30.78579 c 1.28735,0.69884 3.08962,1.19539 5.40683,1.48964 l -0.27585,2.04134 h -15.33773 z m 42.20628,2.42756 c -4.70798,0 -8.12863,-0.95631 -10.26193,-2.86893 -2.09652,-1.91261 -3.14478,-4.94706 -3.14478,-9.10333 V 205.6899 c -1.43447,-0.73562 -3.21836,-1.23217 -5.35166,-1.48964 l 0.22069,-1.98618 h 15.44807 l -0.33103,1.98618 c -2.09653,0.36782 -3.75168,0.86435 -4.96545,1.48964 v 21.73763 c 0,3.23674 0.66206,5.57235 1.98618,7.00681 1.3609,1.39768 3.4942,2.09652 6.39991,2.09652 2.86893,0 5.07578,-0.80918 6.6206,-2.42755 1.54481,-1.61837 2.31721,-3.95398 2.31721,-7.0068 V 205.6899 c -1.3609,-0.73562 -3.14478,-1.23217 -5.35165,-1.48964 l 0.27585,-1.98618 h 13.95844 l -0.27586,1.98618 c -2.17009,0.36782 -3.86201,0.86435 -5.0758,1.48964 v 21.40661 c 0,3.93558 -1.08503,6.97003 -3.25512,9.10332 -2.1333,2.1333 -5.20453,3.19996 -9.21367,3.19996 z m 29.51684,0 c -1.91261,0 -3.8804,-0.31264 -5.90337,-0.93792 -1.98619,-0.66206 -3.42064,-1.30572 -4.30338,-1.93101 v -9.04815 l 2.7034,-0.27586 c 0.22069,1.7655 0.45976,3.25513 0.71723,4.4689 0.29425,1.21377 0.71724,2.44595 1.26895,3.69651 1.83906,0.84597 3.93559,1.26895 6.28957,1.26895 2.05974,0 3.7149,-0.57011 4.96545,-1.71032 1.28734,-1.14022 1.93101,-2.7218 1.93101,-4.74477 0,-1.43446 -0.36782,-2.64824 -1.10343,-3.64133 -0.69884,-0.99308 -1.58158,-1.78389 -2.64824,-2.37239 -1.02987,-0.62527 -2.42755,-1.30572 -4.19305,-2.04135 -1.98619,-0.84597 -3.62294,-1.65515 -4.91028,-2.42755 -1.25055,-0.80919 -2.31721,-1.87583 -3.19995,-3.19996 -0.88276,-1.3609 -1.32413,-3.03443 -1.32413,-5.02061 0,-2.97927 0.9931,-5.35165 2.97928,-7.11715 2.02296,-1.7655 4.81833,-2.64824 8.3861,-2.64824 1.83905,0 3.54937,0.31264 5.13096,0.93792 1.61837,0.62527 2.88732,1.47123 3.80684,2.53789 0.9563,1.06665 1.43446,2.24365 1.43446,3.53099 0,2.35399 -0.91953,3.53099 -2.75858,3.53099 -0.84598,0 -1.50803,-0.1287 -1.98617,-0.38621 -0.44139,-0.25746 -0.84597,-0.64366 -1.21379,-1.15861 0.7724,-0.7724 1.15861,-1.7103 1.15861,-2.81374 0,-0.95632 -0.49655,-1.74711 -1.48964,-2.37238 -0.99308,-0.66207 -2.37237,-0.9931 -4.13787,-0.9931 -2.05974,0 -3.67811,0.47816 -4.85511,1.43447 -1.14022,0.9563 -1.71032,2.33559 -1.71032,4.13788 0,1.32411 0.33103,2.42754 0.9931,3.31029 0.69882,0.88274 1.5448,1.61837 2.53788,2.20687 0.9931,0.55172 2.37239,1.19539 4.13788,1.93101 2.13331,0.91952 3.86202,1.78387 5.18613,2.59306 1.32413,0.80918 2.44595,1.94941 3.36548,3.42065 0.95631,1.43446 1.43447,3.25512 1.43447,5.46199 0,3.34708 -1.15861,5.92175 -3.47582,7.72404 -2.31721,1.7655 -5.38843,2.64824 -9.21367,2.64824 z"
     id="text12"
     style="font-size:37.8552px;line-height:1.7;font-family:Caladea;-inkscape-font-specification:Caladea;text-align:center;letter-spacing:0px;word-spacing:0px;text-anchor:middle;display:none;opacity:0.93;fill:#5f5fd3;stroke-width:3.25816;stroke-linecap:round;stroke-linejoin:round"
     aria-label="LOTUS" />
  <text
     xml:space="preserve"
     style="font-style:normal;font-variant:normal;font-weight:normal;font-stretch:normal;font-size:70.436px;line-height:1.7;font-family:Roboto;-inkscape-font-specification:Roboto;text-align:center;letter-spacing:0px;word-spacing:0px;writing-mode:lr-tb;direction:ltr;text-anchor:middle;fill:#5f5fd3;fill-opacity:1;stroke:#37c8ab;stroke-width:1.3;stroke-linecap:round;stroke-linejoin:round;stroke-dasharray:none;stroke-opacity:0.6"
     x="130.54036"
     y="243.10901"
     id="text1"><tspan
       id="tspan1"
       style="font-style:normal;font-variant:normal;font-weight:500;font-stretch:normal;font-family:Roboto;-inkscape-font-specification:'Roboto Medium';fill:#5f5fd3;fill-opacity:1;stroke:#37c8ab;stroke-width:1.3;stroke-dasharray:none;stroke-opacity:0.6"
       x="130.54036"
       y="243.10901">LOTUS</tspan></text>
  <g
     id="g24">
    <path
       d="m 105.55551,77.851966 a 37.493647,37.493647 0 0 1 6.39018,-23.579171 37.493647,37.493647 0 0 0 -3.06957,-3.980311 37.493647,37.493647 0 0 0 -35.552801,-11.906722 37.493647,37.493647 0 0 0 7.464761,36.743007 37.493647,37.493647 0 0 0 11.902125,8.983949 37.493647,37.493647 0 0 1 12.865305,-6.260752 z"
       style="display:inline;fill:#5f5fd3;fill-opacity:1;stroke-width:0.882662;stroke-linecap:round;stroke-linejoin:round"
       id="path13" />
    <path
       d="m 158.98942,82.192396 a 37.493647,37.493647 0 0 1 23.57918,6.390187 37.493647,37.493647 0 0 0 3.98031,-3.069571 37.493647,37.493647 0 0 0 11.90671,-35.552804 37.493647,37.493647 0 0 0 -36.743,7.464758 37.493647,37.493647 0 0 0 -8.98395,11.90213 37.493647,37.493647 0 0 1 6.26075,12.8653 z"
       style="display:inline;fill:#5f5fd3;fill-opacity:1;stroke-width:0.882662;stroke-linecap:round;stroke-linejoin:round"
       id="path14" />
    <path
       d="m 121.4056,134.30831 a 37.493647,37.493647 0 0 1 -23.579159,-6.39019 37.493647,37.493647 0 0 0 -3.980311,3.06957 37.493647,37.493647 0 0 0 -11.906727,35.5528 37.493647,37.493647 0 0 0 36.742997,-7.46476 37.493647,37.493647 0 0 0 8.98395,-11.90212 37.493647,37.493647 0 0 1 -6.26075,-12.8653 z"
       style="display:inline;fill:#5f5fd3;fill-opacity:1;stroke-width:0.882662;stroke-linecap:round;stroke-linejoin:round"
       id="path20" />
    <path
       d="m 156.60217,121.53532 c 1.71956,5.13793 1.68554,10.75891 -0.0994,15.89122 0.81914,0.71721 1.68547,1.37864 2.59318,1.97983 7.24891,4.80082 16.50839,5.36972 24.29049,1.49239 0.53322,-8.67815 -3.60381,-16.98156 -10.85269,-21.78242 -2.71707,-1.79952 -5.76788,-3.03498 -8.97145,-3.63311 -1.92571,2.46029 -6.91788,6.03384 -6.91788,6.03384 z"
       style="display:inline;fill:#5f5fd3;fill-opacity:1;stroke-width:0.572917;stroke-linecap:round;stroke-linejoin:round"
       id="path19" />
    <g
       id="g11"
       transform="matrix(1.4574396,0,0,1.4574396,-53.540875,-85.530963)">
      <path
         d="m 188.31951,120.55956 a 42.477924,42.477924 0 0 0 -25.93795,-8.83873 42.477924,42.477924 0 0 0 -16.55713,3.36 42.477924,42.477924 0 0 1 -5.61929,17.83147 42.477924,42.477924 0 0 1 4.42918,10.76627 42.477924,42.477924 0 0 0 5.68183,0.38188 42.477924,42.477924 0 0 0 38.00336,-23.50089 z"
         style="opacity:1;fill:#004455;stroke-linecap:round;stroke-linejoin:round"
         id="path11" />
      <path
         d="m 144.63432,143.67857 a 42.477924,42.477924 0 0 1 -10.31565,-2.74557 42.477924,42.477924 0 0 1 -14.28181,9.90637 42.477924,42.477924 0 0 0 -0.13333,3.35948 42.477924,42.477924 0 0 0 13.02711,30.55008 42.477924,42.477924 0 0 0 13.02712,-30.55008 42.477924,42.477924 0 0 0 -1.32344,-10.52028 z"
         style="opacity:1;fill:#00ffcc;stroke-linecap:round;stroke-linejoin:round"
         id="path10" />
      <path
         d="m 124.3782,135.22172 a 42.477924,42.477924 0 0 1 -15.21664,-23.11901 42.477924,42.477924 0 0 0 -5.68183,-0.38188 42.477924,42.477924 0 0 0 -36.7869,21.23901 42.477924,42.477924 0 0 0 36.7869,21.23901 42.477924,42.477924 0 0 0 16.55713,-3.35948 42.477924,42.477924 0 0 1 4.34134,-15.61765 z"
         style="opacity:1;fill:#37c8ab;fill-opacity:1;stroke-linecap:round;stroke-linejoin:round"
         id="path9" />
      <path
         d="m 134.31867,140.933 a 42.477924,42.477924 0 0 0 5.88647,-8.0207 42.477924,42.477924 0 0 0 -7.29568,-9.26197 42.477924,42.477924 0 0 0 -8.53126,11.57139 42.477924,42.477924 0 0 0 9.94047,5.71128 z"
         style="opacity:1;fill:#5f5fd3;stroke-linecap:round;stroke-linejoin:round"
         id="path6" />
      <path
         d="m 109.16156,112.10271 a 42.477924,42.477924 0 0 1 23.7479,11.54762 42.477924,42.477924 0 0 1 12.91497,-8.5695 42.477924,42.477924 0 0 0 0.13333,-3.36 42.477924,42.477924 0 0 0 -26.48056,-39.350066 42.477924,42.477924 0 0 0 -11.63908,29.211666 42.477924,42.477924 0 0 0 1.32344,10.52028 z"
         style="opacity:1;fill:#00ffcc;stroke-linecap:round;stroke-linejoin:round"
         id="path3" />
    </g>
    <path
       d="m 220.92344,90.177314 a 61.909009,61.909009 0 0 0 -37.803,-12.881915 61.909009,61.909009 0 0 0 -24.13102,4.896997 61.909009,61.909009 0 0 1 -8.18977,25.988294 61.909009,61.909009 0 0 1 6.45526,15.69118 61.909009,61.909009 0 0 0 8.28092,0.55657 61.909009,61.909009 0 0 0 55.38761,-34.251126 z"
       style="fill:#37c8ab;fill-opacity:1;stroke-width:1.45744;stroke-linecap:round;stroke-linejoin:round"
       id="path25" />
    <path
       d="m 127.73278,111.54654 a 61.909009,61.909009 0 0 0 -6.32726,22.7614 61.909009,61.909009 0 0 0 20.81474,-14.43788 61.909009,61.909009 0 0 1 -14.48748,-8.32352 z"
       style="fill:#e3dbdb;stroke-linecap:round;stroke-linejoin:round"
       id="path24" />
    <path
       d="m 157.255,123.87188 a 61.909009,61.909009 0 0 0 -6.45542,-15.69154 61.909009,61.909009 0 0 1 -8.57932,11.68972 61.909009,61.909009 0 0 0 15.03474,4.00182 z"
       style="fill:#e3dbdb;stroke-linecap:round;stroke-linejoin:round"
       id="path23" />
    <path
       d="m 140.16664,94.681924 a 61.909009,61.909009 0 0 0 -34.61133,-16.82998 61.909009,61.909009 0 0 0 22.17746,33.694596 61.909009,61.909009 0 0 1 12.43387,-16.864616 z"
       style="fill:#e3dbdb;stroke-linecap:round;stroke-linejoin:round"
       id="path22" />
    <path
       d="m 158.98926,82.192247 a 61.909009,61.909009 0 0 0 -18.82262,12.489677 61.909009,61.909009 0 0 1 10.63294,13.498416 61.909009,61.909009 0 0 0 8.18968,-25.988093 z"
       style="fill:#e3dbdb;stroke-linecap:round;stroke-linejoin:round"
       id="path21" />
  </g>
</svg>
