<?xml version="1.0" encoding="UTF-8" standalone="no"?>
<!-- Created with Inkscape (http://www.inkscape.org/) -->

<svg
   width="1000"
   height="1000"
   viewBox="0 0 264.58333 264.58333"
   version="1.1"
   id="svg1"
   inkscape:export-filename="bitmap.jpg"
   inkscape:export-xdpi="96"
   inkscape:export-ydpi="96"
   inkscape:version="1.4.2 (ebf0e940d0, 2025-05-08)"
   sodipodi:docname="lotus.svg"
   xmlns:inkscape="http://www.inkscape.org/namespaces/inkscape"
   xmlns:sodipodi="http://sodipodi.sourceforge.net/DTD/sodipodi-0.dtd"
   xmlns="http://www.w3.org/2000/svg"
   xmlns:svg="http://www.w3.org/2000/svg">
  <sodipodi:namedview
     id="namedview1"
     pagecolor="#ffffff"
     bordercolor="#000000"
     borderopacity="0.25"
     inkscape:showpageshadow="2"
     inkscape:pageopacity="0.0"
     inkscape:pagecheckerboard="0"
     inkscape:deskcolor="#d1d1d1"
     inkscape:document-units="mm"
     inkscape:zoom="0.35355339"
     inkscape:cx="428.50671"
     inkscape:cy="589.72705"
     inkscape:window-width="1360"
     inkscape:window-height="704"
     inkscape:window-x="1366"
     inkscape:window-y="0"
     inkscape:window-maximized="1"
     inkscape:current-layer="g175" />
  <defs
     id="defs1" />
  <g
     inkscape:label="Capa 1"
     inkscape:groupmode="layer"
     id="layer1">
    <g
       id="g175"
       transform="matrix(1.4574396,0,0,1.4574396,-53.540875,-85.393708)">
      <path
         d="m 109.16156,112.10271 a 25.725695,25.725695 0 0 1 4.38453,-16.178489 25.725695,25.725695 0 0 0 -2.10614,-2.73103 25.725695,25.725695 0 0 0 -24.394014,-8.169616 25.725695,25.725695 0 0 0 5.121832,25.210655 25.725695,25.725695 0 0 0 8.166462,6.1642 25.725695,25.725695 0 0 1 8.82733,-4.29572 z"
         style="display:inline;opacity:1;fill:#37c8ab;stroke-width:0.605625;stroke-linecap:round;stroke-linejoin:round"
         id="path13" />
      <path
         d="m 145.82443,115.08083 a 25.725695,25.725695 0 0 1 16.17849,4.38453 25.725695,25.725695 0 0 0 2.73103,-2.10614 25.725695,25.725695 0 0 0 8.16961,-24.394015 25.725695,25.725695 0 0 0 -25.21065,5.12183 25.725695,25.725695 0 0 0 -6.1642,8.166465 25.725695,25.725695 0 0 1 4.29572,8.82733 z"
         style="display:inline;opacity:1;fill:#37c8ab;stroke-width:0.605625;stroke-linecap:round;stroke-linejoin:round"
         id="path14" />
      <path
         d="m 120.03686,150.83937 a 25.725695,25.725695 0 0 1 -16.17848,-4.38453 25.725695,25.725695 0 0 0 -2.73103,2.10614 25.725695,25.725695 0 0 0 -8.169619,24.39401 25.725695,25.725695 0 0 0 25.210649,-5.12183 25.725695,25.725695 0 0 0 6.1642,-8.16646 25.725695,25.725695 0 0 1 -4.29572,-8.82733 z"
         style="display:inline;opacity:1;fill:#37c8ab;stroke-width:0.605625;stroke-linecap:round;stroke-linejoin:round"
         id="path20" />
      <path
         d="m 144.18645,142.07538 c 1.17985,3.52531 1.15651,7.38206 -0.0682,10.90352 0.56204,0.4921 1.15646,0.94593 1.77927,1.35843 4.97373,3.29401 11.32698,3.68435 16.66655,1.02398 0.36586,-5.95438 -2.4727,-11.65164 -7.44641,-14.94568 -1.86427,-1.23471 -3.95754,-2.0824 -6.15562,-2.4928 -1.3213,1.68809 -4.7466,4.14003 -4.7466,4.14003 z"
         style="display:inline;opacity:1;fill:#37c8ab;stroke-width:0.393098;stroke-linecap:round;stroke-linejoin:round"
         id="path19"
         sodipodi:nodetypes="ccccscsc" />
      <g
         id="g11">
        <path
           d="m 188.31951,120.55956 a 42.477924,42.477924 0 0 0 -25.93795,-8.83873 42.477924,42.477924 0 0 0 -16.55713,3.36 42.477924,42.477924 0 0 1 -5.61929,17.83147 42.477924,42.477924 0 0 1 4.42918,10.76627 42.477924,42.477924 0 0 0 5.68183,0.38188 42.477924,42.477924 0 0 0 38.00336,-23.50089 z"
           style="opacity:1;fill:#004455;stroke-linecap:round;stroke-linejoin:round"
           id="path11" />
        <path
           d="m 144.63432,143.67857 a 42.477924,42.477924 0 0 1 -10.31565,-2.74557 42.477924,42.477924 0 0 1 -14.28181,9.90637 42.477924,42.477924 0 0 0 -0.13333,3.35948 42.477924,42.477924 0 0 0 13.02711,30.55008 42.477924,42.477924 0 0 0 13.02712,-30.55008 42.477924,42.477924 0 0 0 -1.32344,-10.52028 z"
           style="opacity:1;fill:#5f5fd3;stroke-linecap:round;stroke-linejoin:round"
           id="path10" />
        <path
           d="m 124.3782,135.22172 a 42.477924,42.477924 0 0 1 -15.21664,-23.11901 42.477924,42.477924 0 0 0 -5.68183,-0.38188 42.477924,42.477924 0 0 0 -36.7869,21.23901 42.477924,42.477924 0 0 0 36.7869,21.23901 42.477924,42.477924 0 0 0 16.55713,-3.35948 42.477924,42.477924 0 0 1 4.34134,-15.61765 z"
           style="opacity:1;fill:#afafe9;stroke-linecap:round;stroke-linejoin:round"
           id="path9" />
        <path
           d="m 134.31867,140.933 a 42.477924,42.477924 0 0 0 5.88647,-8.0207 42.477924,42.477924 0 0 0 -7.29568,-9.26197 42.477924,42.477924 0 0 0 -8.53126,11.57139 42.477924,42.477924 0 0 0 9.94047,5.71128 z"
           style="opacity:1;fill:#004455;stroke-linecap:round;stroke-linejoin:round"
           id="path6" />
        <path
           d="m 109.16156,112.10271 a 42.477924,42.477924 0 0 1 23.7479,11.54762 42.477924,42.477924 0 0 1 12.91497,-8.5695 42.477924,42.477924 0 0 0 0.13333,-3.36 42.477924,42.477924 0 0 0 -26.48056,-39.350066 42.477924,42.477924 0 0 0 -11.63908,29.211666 42.477924,42.477924 0 0 0 1.32344,10.52028 z"
           style="opacity:1;fill:#5f5fd3;stroke-linecap:round;stroke-linejoin:round"
           id="path3" />
      </g>
      <path
         d="m 188.31951,120.55956 a 42.477924,42.477924 0 0 0 -25.93795,-8.83873 42.477924,42.477924 0 0 0 -16.55713,3.36 42.477924,42.477924 0 0 1 -5.61929,17.83147 42.477924,42.477924 0 0 1 4.42918,10.76627 42.477924,42.477924 0 0 0 5.68183,0.38188 42.477924,42.477924 0 0 0 38.00336,-23.50089 z"
         style="opacity:1;fill:#afafe9;stroke-linecap:round;stroke-linejoin:round"
         id="path25" />
      <path
         d="m 81.580054,221.28066 c 1.488971,-0.17666 2.624627,-0.51736 3.406968,-1.02209 v -20.44181 c -0.933762,-0.50473 -2.145129,-0.84543 -3.6341,-1.02209 l 0.189276,-1.36279 h 10.485891 l -0.189276,1.36279 c -1.388024,0.17666 -2.548917,0.51736 -3.482678,1.02209 v 20.66894 h 7.078922 c 0.782341,-1.11042 1.324933,-2.5363 1.627774,-4.27764 0.201895,-0.0757 0.429026,-0.11356 0.681394,-0.11356 0.252368,0 0.529973,0.0378 0.832814,0.11356 l -0.340697,6.47324 h -16.88342 z m 28.769966,5.25994 c -3.70981,0 -6.37229,-4.70473 -7.98745,-6.92557 -1.58992,-2.22084 -4.618345,-5.41329 -4.618345,-9.57736 0,-4.18931 3.028425,-7.39439 4.618345,-9.61523 1.61516,-2.22083 4.27764,-6.66882 7.98745,-6.66882 3.68457,0 6.32182,4.46061 7.91174,6.70668 1.61515,2.22084 4.58052,5.42591 4.58052,9.61522 0,4.16407 -2.96537,7.35653 -4.58052,9.57737 -1.58992,2.1956 -4.22717,6.88771 -7.91174,6.88771 z m 0,-5.44922 c 1.79181,0 3.1546,-0.4795 4.08836,-1.43849 0.959,-0.98424 1.60254,-2.27132 1.93062,-3.86123 0.32808,-1.58992 0.49212,-3.4953 0.49212,-5.71614 0,-2.24607 -0.16404,-4.16407 -0.49212,-5.75399 -0.32808,-1.58992 -0.97162,-2.877 -1.93062,-3.86123 -0.93376,-0.98423 -2.29655,-1.47635 -4.08836,-1.47635 -1.79181,0 -3.16722,0.49212 -4.12622,1.47635 -0.95899,0.98423 -1.60253,2.27131 -1.93061,3.86123 -0.32808,1.56468 -0.49212,3.47006 -0.49212,5.71614 0,3.45744 0.44164,6.17039 1.32493,8.13886 0.90853,1.94323 2.64987,2.91485 5.22402,2.91485 z m 16.23992,0.18928 c 1.48897,-0.17666 2.63725,-0.51736 3.44482,-1.02209 v -21.1232 c -1.94323,0.0252 -3.59624,0.11353 -4.95903,0.26498 -0.45426,0.63092 -0.80757,1.36279 -1.05994,2.19561 -0.22713,0.80757 -0.35332,1.53944 -0.37855,2.1956 -0.17666,0.0253 -0.44165,0.0379 -0.79496,0.0379 -0.40379,0 -0.69402,-0.0126 -0.87067,-0.0379 v -6.5111 c 3.48267,0.10095 6.71298,0.15142 9.69093,0.15142 1.99371,0 3.9117,-0.0126 5.75399,-0.0378 1.86752,-0.0505 3.19245,-0.0883 3.9748,-0.11357 v 6.5111 c -0.17666,0.0253 -0.44165,0.0379 -0.79496,0.0379 -0.37855,0 -0.66878,-0.0126 -0.87067,-0.0379 -0.17666,-1.81705 -0.63092,-3.26817 -1.36279,-4.35335 -1.64039,-0.17666 -3.30602,-0.27761 -4.99689,-0.30284 v 21.1232 c 0.88329,0.4795 2.11989,0.8202 3.70981,1.02209 l -0.18927,1.40064 h -10.52375 z m 28.9592,1.66563 c -3.23031,0 -5.57734,-0.65616 -7.04107,-1.96847 -1.43849,-1.31231 -2.15774,-3.39435 -2.15774,-6.24611 v -14.91495 c -0.98424,-0.50473 -2.20823,-0.84543 -3.67196,-1.02209 l 0.15142,-1.36279 h 10.59946 l -0.22713,1.36279 c -1.4385,0.25237 -2.57416,0.59306 -3.40697,1.02209 v 14.91495 c 0,2.22084 0.45426,3.82338 1.36279,4.80761 0.93376,0.959 2.39749,1.4385 4.3912,1.4385 1.96847,0 3.48267,-0.55521 4.54262,-1.66563 1.05995,-1.11042 1.58992,-2.71296 1.58992,-4.80761 v -14.68782 c -0.93376,-0.50473 -2.15774,-0.84543 -3.67195,-1.02209 l 0.18927,-1.36279 h 9.57737 l -0.18928,1.36279 c -1.48897,0.25237 -2.64986,0.59306 -3.48268,1.02209 v 14.68782 c 0,2.70034 -0.74448,4.78238 -2.23345,6.24611 -1.46373,1.46373 -3.57101,2.1956 -6.32182,2.1956 z m 20.25253,0 c -1.31231,0 -2.66248,-0.21451 -4.05051,-0.64354 -1.36279,-0.45426 -2.34702,-0.8959 -2.9527,-1.32493 v -6.20825 l 1.8549,-0.18928 c 0.15142,1.21137 0.31546,2.23346 0.49212,3.06627 0.20189,0.83281 0.49212,1.67825 0.87067,2.5363 1.26184,0.58045 2.70034,0.87067 4.31549,0.87067 1.41326,0 2.54892,-0.39117 3.40697,-1.17351 0.88329,-0.78234 1.32493,-1.86752 1.32493,-3.25555 0,-0.98423 -0.25237,-1.81705 -0.7571,-2.49844 -0.4795,-0.68139 -1.08518,-1.22399 -1.81705,-1.62778 -0.70663,-0.42902 -1.66563,-0.8959 -2.877,-1.40064 -1.36279,-0.58045 -2.48582,-1.13566 -3.36911,-1.66563 -0.85805,-0.55521 -1.58992,-1.28707 -2.1956,-2.1956 -0.60569,-0.93376 -0.90853,-2.08203 -0.90853,-3.44482 0,-2.04418 0.6814,-3.67195 2.04419,-4.88332 1.38802,-1.21137 3.30602,-1.81705 5.75399,-1.81705 1.26184,0 2.43535,0.21451 3.52053,0.64354 1.11042,0.42902 1.98109,1.00946 2.61201,1.74133 0.65615,0.73187 0.98423,1.53945 0.98423,2.42274 0,1.61515 -0.63092,2.42273 -1.89276,2.42273 -0.58045,0 -1.03471,-0.0883 -1.36278,-0.26499 -0.30285,-0.17665 -0.58045,-0.44164 -0.83282,-0.79496 0.52997,-0.52997 0.79496,-1.1735 0.79496,-1.93061 0,-0.65616 -0.3407,-1.19875 -1.02209,-1.62777 -0.68139,-0.45427 -1.62777,-0.6814 -2.83914,-0.6814 -1.41326,0 -2.52368,0.32808 -3.33126,0.98424 -0.78234,0.65615 -1.17351,1.60253 -1.17351,2.83914 0,0.90852 0.22713,1.66562 0.6814,2.27131 0.47949,0.60568 1.05994,1.11042 1.74133,1.51421 0.6814,0.37855 1.62778,0.8202 2.83914,1.32493 1.46374,0.63092 2.64987,1.22398 3.55839,1.77919 0.90853,0.55521 1.67825,1.33756 2.30917,2.34703 0.65616,0.98423 0.98424,2.23345 0.98424,3.74766 0,2.29655 -0.79496,4.06312 -2.38488,5.29973 -1.58992,1.21137 -3.69719,1.81705 -6.32182,1.81705 z"
         id="text12"
         style="font-size:37.8552px;line-height:1.7;font-family:Caladea;-inkscape-font-specification:Caladea;text-align:center;letter-spacing:0px;word-spacing:0px;text-anchor:middle;opacity:0.93;fill:#5f5fd3;stroke-width:2.23554;stroke-linecap:round;stroke-linejoin:round"
         aria-label="LOTUS"
         sodipodi:nodetypes="cccccccccccsccccscscscscsscssscsscscsccccccsccscccsccccccccscsccccccscsssccccccscssccccccscscccccscsccssccscscscccscscs" />
      <path
         d="m 81.580054,221.28066 c 1.488971,-0.17666 2.624627,-0.51736 3.406968,-1.02209 v -20.44181 c -0.933762,-0.50473 -2.145129,-0.84543 -3.6341,-1.02209 l 0.189276,-1.36279 h 10.485891 l -0.189276,1.36279 c -1.388024,0.17666 -2.548917,0.51736 -3.482678,1.02209 v 20.66894 h 7.078922 c 0.782341,-1.11042 1.324933,-2.5363 1.627774,-4.27764 0.201895,-0.0757 0.429026,-0.11356 0.681394,-0.11356 0.252368,0 0.529973,0.0378 0.832814,0.11356 l -0.340697,6.47324 h -16.88342 z m 28.769966,5.25994 c -3.70981,0 -6.37229,-4.70473 -7.98745,-6.92557 -1.58992,-2.22084 -4.618345,-5.41329 -4.618345,-9.57736 0,-4.18931 3.028425,-7.39439 4.618345,-9.61523 1.61516,-2.22083 4.27764,-6.66882 7.98745,-6.66882 3.68457,0 6.32182,4.46061 7.91174,6.70668 1.61515,2.22084 4.58052,5.42591 4.58052,9.61522 0,4.16407 -2.96537,7.35653 -4.58052,9.57737 -1.58992,2.1956 -4.22717,6.88771 -7.91174,6.88771 z m 0,-5.44922 c 1.79181,0 3.1546,-0.4795 4.08836,-1.43849 0.959,-0.98424 1.60254,-2.27132 1.93062,-3.86123 0.32808,-1.58992 0.49212,-3.4953 0.49212,-5.71614 0,-2.24607 -0.16404,-4.16407 -0.49212,-5.75399 -0.32808,-1.58992 -0.97162,-2.877 -1.93062,-3.86123 -0.93376,-0.98423 -2.29655,-1.47635 -4.08836,-1.47635 -1.79181,0 -3.16722,0.49212 -4.12622,1.47635 -0.95899,0.98423 -1.60253,2.27131 -1.93061,3.86123 -0.32808,1.56468 -0.49212,3.47006 -0.49212,5.71614 0,3.45744 0.44164,6.17039 1.32493,8.13886 0.90853,1.94323 2.64987,2.91485 5.22402,2.91485 z m 16.23992,0.18928 c 1.48897,-0.17666 2.63725,-0.51736 3.44482,-1.02209 v -21.1232 c -1.94323,0.0252 -3.59624,0.11353 -4.95903,0.26498 -0.45426,0.63092 -0.80757,1.36279 -1.05994,2.19561 -0.22713,0.80757 -0.35332,1.53944 -0.37855,2.1956 -0.17666,0.0253 -0.44165,0.0379 -0.79496,0.0379 -0.40379,0 -0.69402,-0.0126 -0.87067,-0.0379 v -6.5111 c 3.48267,0.10095 6.71298,0.15142 9.69093,0.15142 1.99371,0 3.9117,-0.0126 5.75399,-0.0378 1.86752,-0.0505 3.19245,-0.0883 3.9748,-0.11357 v 6.5111 c -0.17666,0.0253 -0.44165,0.0379 -0.79496,0.0379 -0.37855,0 -0.66878,-0.0126 -0.87067,-0.0379 -0.17666,-1.81705 -0.63092,-3.26817 -1.36279,-4.35335 -1.64039,-0.17666 -3.30602,-0.27761 -4.99689,-0.30284 v 21.1232 c 0.88329,0.4795 2.11989,0.8202 3.70981,1.02209 l -0.18927,1.40064 h -10.52375 z m 28.9592,1.66563 c -3.23031,0 -5.57734,-0.65616 -7.04107,-1.96847 -1.43849,-1.31231 -2.15774,-3.39435 -2.15774,-6.24611 v -14.91495 c -0.98424,-0.50473 -2.20823,-0.84543 -3.67196,-1.02209 l 0.15142,-1.36279 h 10.59946 l -0.22713,1.36279 c -1.4385,0.25237 -2.57416,0.59306 -3.40697,1.02209 v 14.91495 c 0,2.22084 0.45426,3.82338 1.36279,4.80761 0.93376,0.959 2.39749,1.4385 4.3912,1.4385 1.96847,0 3.48267,-0.55521 4.54262,-1.66563 1.05995,-1.11042 1.58992,-2.71296 1.58992,-4.80761 v -14.68782 c -0.93376,-0.50473 -2.15774,-0.84543 -3.67195,-1.02209 l 0.18927,-1.36279 h 9.57737 l -0.18928,1.36279 c -1.48897,0.25237 -2.64986,0.59306 -3.48268,1.02209 v 14.68782 c 0,2.70034 -0.74448,4.78238 -2.23345,6.24611 -1.46373,1.46373 -3.57101,2.1956 -6.32182,2.1956 z m 20.25253,0 c -1.31231,0 -2.66248,-0.21451 -4.05051,-0.64354 -1.36279,-0.45426 -2.34702,-0.8959 -2.9527,-1.32493 v -6.20825 l 1.8549,-0.18928 c 0.15142,1.21137 0.31546,2.23346 0.49212,3.06627 0.20189,0.83281 0.49212,1.67825 0.87067,2.5363 1.26184,0.58045 2.70034,0.87067 4.31549,0.87067 1.41326,0 2.54892,-0.39117 3.40697,-1.17351 0.88329,-0.78234 1.32493,-1.86752 1.32493,-3.25555 0,-0.98423 -0.25237,-1.81705 -0.7571,-2.49844 -0.4795,-0.68139 -1.08518,-1.22399 -1.81705,-1.62778 -0.70663,-0.42902 -1.66563,-0.8959 -2.877,-1.40064 -1.36279,-0.58045 -2.48582,-1.13566 -3.36911,-1.66563 -0.85805,-0.55521 -1.58992,-1.28707 -2.1956,-2.1956 -0.60569,-0.93376 -0.90853,-2.08203 -0.90853,-3.44482 0,-2.04418 0.6814,-3.67195 2.04419,-4.88332 1.38802,-1.21137 3.30602,-1.81705 5.75399,-1.81705 1.26184,0 2.43535,0.21451 3.52053,0.64354 1.11042,0.42902 1.98109,1.00946 2.61201,1.74133 0.65615,0.73187 0.98423,1.53945 0.98423,2.42274 0,1.61515 -0.63092,2.42273 -1.89276,2.42273 -0.58045,0 -1.03471,-0.0883 -1.36278,-0.26499 -0.30285,-0.17665 -0.58045,-0.44164 -0.83282,-0.79496 0.52997,-0.52997 0.79496,-1.1735 0.79496,-1.93061 0,-0.65616 -0.3407,-1.19875 -1.02209,-1.62777 -0.68139,-0.45427 -1.62777,-0.6814 -2.83914,-0.6814 -1.41326,0 -2.52368,0.32808 -3.33126,0.98424 -0.78234,0.65615 -1.17351,1.60253 -1.17351,2.83914 0,0.90852 0.22713,1.66562 0.6814,2.27131 0.47949,0.60568 1.05994,1.11042 1.74133,1.51421 0.6814,0.37855 1.62778,0.8202 2.83914,1.32493 1.46374,0.63092 2.64987,1.22398 3.55839,1.77919 0.90853,0.55521 1.67825,1.33756 2.30917,2.34703 0.65616,0.98423 0.98424,2.23345 0.98424,3.74766 0,2.29655 -0.79496,4.06312 -2.38488,5.29973 -1.58992,1.21137 -3.69719,1.81705 -6.32182,1.81705 z"
         id="path175"
         style="font-size:37.8552px;line-height:1.7;font-family:Caladea;-inkscape-font-specification:Caladea;text-align:center;letter-spacing:0px;word-spacing:0px;text-anchor:middle;opacity:0.93;fill:#5f5fd3;stroke-width:2.23554;stroke-linecap:round;stroke-linejoin:round"
         aria-label="LOTUS"
         sodipodi:nodetypes="cccccccccccsccccscscscscsscssscsscscsccccccsccscccsccccccccscsccccccscsssccccccscssccccccscscccccscsccssccscscscccscscs" />
    </g>
  </g>
</svg>
