<?xml version="1.0" encoding="UTF-8" standalone="no"?>
<!-- Created with Inkscape (http://www.inkscape.org/) -->

<svg
   width="1000.0001"
   height="1000.0001"
   viewBox="0 0 264.58335 264.58335"
   version="1.1"
   id="svg1"
   xmlns="http://www.w3.org/2000/svg"
   xmlns:svg="http://www.w3.org/2000/svg">
  <defs
     id="defs1" />
  <g
     id="g39"
     transform="matrix(1.4392116,0,0,1.4392116,-58.104047,-14.273678)">
    <path
       d="m 105.55551,77.851966 a 37.493647,37.493647 0 0 1 6.39018,-23.579171 37.493647,37.493647 0 0 0 -3.06957,-3.980311 37.493647,37.493647 0 0 0 -35.552801,-11.906722 37.493647,37.493647 0 0 0 7.464761,36.743007 37.493647,37.493647 0 0 0 11.902125,8.983949 37.493647,37.493647 0 0 1 12.865305,-6.260752 z"
       style="display:inline;fill:#5f5fd3;fill-opacity:1;stroke-width:0.882662;stroke-linecap:round;stroke-linejoin:round"
       id="path26" />
    <path
       d="m 158.98942,82.192396 a 37.493647,37.493647 0 0 1 23.57918,6.390187 37.493647,37.493647 0 0 0 3.98031,-3.069571 37.493647,37.493647 0 0 0 11.90671,-35.552804 37.493647,37.493647 0 0 0 -36.743,7.464758 37.493647,37.493647 0 0 0 -8.98395,11.90213 37.493647,37.493647 0 0 1 6.26075,12.8653 z"
       style="display:inline;fill:#5f5fd3;fill-opacity:1;stroke-width:0.882662;stroke-linecap:round;stroke-linejoin:round"
       id="path27" />
    <path
       d="m 121.4056,134.30831 a 37.493647,37.493647 0 0 1 -23.579159,-6.39019 37.493647,37.493647 0 0 0 -3.980311,3.06957 37.493647,37.493647 0 0 0 -11.906727,35.5528 37.493647,37.493647 0 0 0 36.742997,-7.46476 37.493647,37.493647 0 0 0 8.98395,-11.90212 37.493647,37.493647 0 0 1 -6.26075,-12.8653 z"
       style="display:inline;fill:#5f5fd3;fill-opacity:1;stroke-width:0.882662;stroke-linecap:round;stroke-linejoin:round"
       id="path28" />
    <path
       d="m 156.60217,121.53532 c 1.71956,5.13793 1.68554,10.75891 -0.0994,15.89122 0.81914,0.71721 1.68547,1.37864 2.59318,1.97983 7.24891,4.80082 16.50839,5.36972 24.29049,1.49239 0.53322,-8.67815 -3.60381,-16.98156 -10.85269,-21.78242 -2.71707,-1.79952 -5.76788,-3.03498 -8.97145,-3.63311 -1.92571,2.46029 -6.91788,6.03384 -6.91788,6.03384 z"
       style="display:inline;fill:#5f5fd3;fill-opacity:1;stroke-width:0.572917;stroke-linecap:round;stroke-linejoin:round"
       id="path29" />
    <g
       id="g34"
       transform="matrix(1.4574396,0,0,1.4574396,-53.540875,-85.530963)">
      <path
         d="m 188.31951,120.55956 a 42.477924,42.477924 0 0 0 -25.93795,-8.83873 42.477924,42.477924 0 0 0 -16.55713,3.36 42.477924,42.477924 0 0 1 -5.61929,17.83147 42.477924,42.477924 0 0 1 4.42918,10.76627 42.477924,42.477924 0 0 0 5.68183,0.38188 42.477924,42.477924 0 0 0 38.00336,-23.50089 z"
         style="opacity:1;fill:#004455;stroke-linecap:round;stroke-linejoin:round"
         id="path30" />
      <path
         d="m 144.63432,143.67857 a 42.477924,42.477924 0 0 1 -10.31565,-2.74557 42.477924,42.477924 0 0 1 -14.28181,9.90637 42.477924,42.477924 0 0 0 -0.13333,3.35948 42.477924,42.477924 0 0 0 13.02711,30.55008 42.477924,42.477924 0 0 0 13.02712,-30.55008 42.477924,42.477924 0 0 0 -1.32344,-10.52028 z"
         style="opacity:1;fill:#00ffcc;stroke-linecap:round;stroke-linejoin:round"
         id="path31" />
      <path
         d="m 124.3782,135.22172 a 42.477924,42.477924 0 0 1 -15.21664,-23.11901 42.477924,42.477924 0 0 0 -5.68183,-0.38188 42.477924,42.477924 0 0 0 -36.7869,21.23901 42.477924,42.477924 0 0 0 36.7869,21.23901 42.477924,42.477924 0 0 0 16.55713,-3.35948 42.477924,42.477924 0 0 1 4.34134,-15.61765 z"
         style="opacity:1;fill:#37c8ab;fill-opacity:1;stroke-linecap:round;stroke-linejoin:round"
         id="path32" />
      <path
         d="m 134.31867,140.933 a 42.477924,42.477924 0 0 0 5.88647,-8.0207 42.477924,42.477924 0 0 0 -7.29568,-9.26197 42.477924,42.477924 0 0 0 -8.53126,11.57139 42.477924,42.477924 0 0 0 9.94047,5.71128 z"
         style="opacity:1;fill:#5f5fd3;stroke-linecap:round;stroke-linejoin:round"
         id="path33" />
      <path
         d="m 109.16156,112.10271 a 42.477924,42.477924 0 0 1 23.7479,11.54762 42.477924,42.477924 0 0 1 12.91497,-8.5695 42.477924,42.477924 0 0 0 0.13333,-3.36 42.477924,42.477924 0 0 0 -26.48056,-39.350066 42.477924,42.477924 0 0 0 -11.63908,29.211666 42.477924,42.477924 0 0 0 1.32344,10.52028 z"
         style="opacity:1;fill:#00ffcc;stroke-linecap:round;stroke-linejoin:round"
         id="path34" />
    </g>
    <path
       d="m 220.92344,90.177314 a 61.909009,61.909009 0 0 0 -37.803,-12.881915 61.909009,61.909009 0 0 0 -24.13102,4.896997 61.909009,61.909009 0 0 1 -8.18977,25.988294 61.909009,61.909009 0 0 1 6.45526,15.69118 61.909009,61.909009 0 0 0 8.28092,0.55657 61.909009,61.909009 0 0 0 55.38761,-34.251126 z"
       style="fill:#37c8ab;fill-opacity:1;stroke-width:1.45744;stroke-linecap:round;stroke-linejoin:round"
       id="path35" />
    <path
       d="m 127.73278,111.54654 a 61.909009,61.909009 0 0 0 -6.32726,22.7614 61.909009,61.909009 0 0 0 20.81474,-14.43788 61.909009,61.909009 0 0 1 -14.48748,-8.32352 z"
       style="fill:#e3dbdb;stroke-linecap:round;stroke-linejoin:round"
       id="path36" />
    <path
       d="m 157.255,123.87188 a 61.909009,61.909009 0 0 0 -6.45542,-15.69154 61.909009,61.909009 0 0 1 -8.57932,11.68972 61.909009,61.909009 0 0 0 15.03474,4.00182 z"
       style="fill:#e3dbdb;stroke-linecap:round;stroke-linejoin:round"
       id="path37" />
    <path
       d="m 140.16664,94.681924 a 61.909009,61.909009 0 0 0 -34.61133,-16.82998 61.909009,61.909009 0 0 0 22.17746,33.694596 61.909009,61.909009 0 0 1 12.43387,-16.864616 z"
       style="fill:#e3dbdb;stroke-linecap:round;stroke-linejoin:round"
       id="path38" />
    <path
       d="m 158.98926,82.192247 a 61.909009,61.909009 0 0 0 -18.82262,12.489677 61.909009,61.909009 0 0 1 10.63294,13.498416 61.909009,61.909009 0 0 0 8.18968,-25.988093 z"
       style="fill:#e3dbdb;stroke-linecap:round;stroke-linejoin:round"
       id="path39" />
  </g>
</svg>
